<svg width="401" height="34" viewBox="0 0 401 34" fill="none" xmlns="http://www.w3.org/2000/svg">
<path d="M19.5762 17.2158L22.8916 18.0532C22.1966 20.7762 20.9434 22.8555 19.1318 24.291C17.3317 25.7152 15.1271 26.4272 12.5181 26.4272C9.81787 26.4272 7.61898 25.8804 5.92139 24.7866C4.23519 23.6815 2.94775 22.0864 2.05908 20.0015C1.1818 17.9165 0.743164 15.6777 0.743164 13.2852C0.743164 10.6761 1.23877 8.40316 2.22998 6.46631C3.23258 4.51807 4.65104 3.04264 6.48535 2.04004C8.33105 1.02604 10.359 0.519043 12.5693 0.519043C15.0758 0.519043 17.1836 1.15706 18.8926 2.43311C20.6016 3.70915 21.7922 5.50358 22.4644 7.81641L19.2002 8.58545C18.6191 6.76253 17.776 5.43522 16.6709 4.60352C15.5658 3.77181 14.1758 3.35596 12.501 3.35596C10.5755 3.35596 8.96338 3.81738 7.66455 4.74023C6.37712 5.66309 5.47135 6.90495 4.94727 8.46582C4.42318 10.0153 4.16113 11.616 4.16113 13.2681C4.16113 15.3986 4.46875 17.2614 5.08398 18.8564C5.71061 20.4401 6.67904 21.625 7.98926 22.4111C9.29948 23.1973 10.7179 23.5903 12.2446 23.5903C14.1017 23.5903 15.674 23.0549 16.9614 21.9839C18.2489 20.9129 19.1204 19.3236 19.5762 17.2158ZM28.9551 16.9253C28.9551 13.5643 29.8893 11.0749 31.7578 9.45703C33.3187 8.11263 35.2214 7.44043 37.4658 7.44043C39.9609 7.44043 42.0003 8.26074 43.584 9.90137C45.1676 11.5306 45.9595 13.7865 45.9595 16.6689C45.9595 19.0046 45.6063 20.8446 44.8999 22.189C44.2049 23.522 43.1852 24.5588 41.8408 25.2993C40.5078 26.0399 39.0495 26.4102 37.4658 26.4102C34.9251 26.4102 32.8687 25.5955 31.2964 23.9663C29.7355 22.3371 28.9551 19.9901 28.9551 16.9253ZM32.1167 16.9253C32.1167 19.2495 32.6237 20.9927 33.6377 22.1548C34.6517 23.3055 35.9277 23.8809 37.4658 23.8809C38.9925 23.8809 40.2629 23.2998 41.2769 22.1377C42.2909 20.9756 42.7979 19.2039 42.7979 16.8228C42.7979 14.5783 42.2852 12.8807 41.2598 11.73C40.2458 10.5679 38.9811 9.98682 37.4658 9.98682C35.9277 9.98682 34.6517 10.5622 33.6377 11.7129C32.6237 12.8636 32.1167 14.6011 32.1167 16.9253ZM64.8574 26V23.71C63.7067 25.5101 62.0148 26.4102 59.7817 26.4102C58.3348 26.4102 57.0018 26.0114 55.7827 25.2139C54.575 24.4163 53.6351 23.3055 52.9629 21.8813C52.3021 20.4458 51.9717 18.7995 51.9717 16.9424C51.9717 15.1309 52.2736 13.4902 52.8774 12.0205C53.4813 10.5394 54.387 9.40576 55.5947 8.61963C56.8024 7.8335 58.1525 7.44043 59.645 7.44043C60.7388 7.44043 61.7129 7.67399 62.5674 8.14111C63.4219 8.59684 64.1169 9.19499 64.6523 9.93555V0.946289H67.7114V26H64.8574ZM55.1333 16.9424C55.1333 19.2666 55.6232 21.0041 56.603 22.1548C57.5828 23.3055 58.7393 23.8809 60.0723 23.8809C61.4167 23.8809 62.556 23.334 63.4902 22.2402C64.4359 21.1351 64.9087 19.4546 64.9087 17.1987C64.9087 14.715 64.4302 12.8921 63.4731 11.73C62.5161 10.5679 61.3369 9.98682 59.9355 9.98682C58.5684 9.98682 57.4233 10.5451 56.5005 11.6616C55.589 12.7782 55.1333 14.5384 55.1333 16.9424ZM88.4893 20.1553L91.668 20.5483C91.1667 22.4054 90.2381 23.8467 88.8823 24.8721C87.5265 25.8975 85.7948 26.4102 83.687 26.4102C81.0324 26.4102 78.9246 25.5955 77.3638 23.9663C75.8143 22.3257 75.0396 20.0299 75.0396 17.0791C75.0396 14.0257 75.8257 11.6559 77.3979 9.96973C78.9702 8.28353 81.0096 7.44043 83.5161 7.44043C85.9429 7.44043 87.9253 8.26644 89.4634 9.91846C91.0015 11.5705 91.7705 13.8947 91.7705 16.8911C91.7705 17.0734 91.7648 17.3468 91.7534 17.7114H78.2183C78.3322 19.7052 78.8962 21.2319 79.9102 22.2915C80.9242 23.3511 82.1888 23.8809 83.7041 23.8809C84.832 23.8809 85.7948 23.5846 86.5923 22.9922C87.3898 22.3997 88.0221 21.4541 88.4893 20.1553ZM78.3892 15.1821H88.5234C88.3867 13.6554 87.9993 12.5104 87.3613 11.7471C86.3815 10.5622 85.1112 9.96973 83.5503 9.96973C82.1375 9.96973 80.9469 10.4425 79.9785 11.3882C79.0215 12.3338 78.4917 13.5985 78.3892 15.1821ZM113.023 26V10.2432H110.306V7.85059H113.023V5.91943C113.023 4.70036 113.132 3.7946 113.348 3.20215C113.644 2.40462 114.163 1.7609 114.903 1.271C115.655 0.769694 116.703 0.519043 118.048 0.519043C118.914 0.519043 119.871 0.621582 120.919 0.82666L120.458 3.50977C119.819 3.39583 119.216 3.33887 118.646 3.33887C117.712 3.33887 117.051 3.53825 116.664 3.93701C116.276 4.33577 116.083 5.08203 116.083 6.17578V7.85059H119.62V10.2432H116.083V26H113.023ZM124.385 16.9253C124.385 13.5643 125.319 11.0749 127.188 9.45703C128.748 8.11263 130.651 7.44043 132.896 7.44043C135.391 7.44043 137.43 8.26074 139.014 9.90137C140.597 11.5306 141.389 13.7865 141.389 16.6689C141.389 19.0046 141.036 20.8446 140.33 22.189C139.635 23.522 138.615 24.5588 137.271 25.2993C135.938 26.0399 134.479 26.4102 132.896 26.4102C130.355 26.4102 128.298 25.5955 126.726 23.9663C125.165 22.3371 124.385 19.9901 124.385 16.9253ZM127.546 16.9253C127.546 19.2495 128.053 20.9927 129.067 22.1548C130.081 23.3055 131.357 23.8809 132.896 23.8809C134.422 23.8809 135.693 23.2998 136.707 22.1377C137.721 20.9756 138.228 19.2039 138.228 16.8228C138.228 14.5783 137.715 12.8807 136.689 11.73C135.675 10.5679 134.411 9.98682 132.896 9.98682C131.357 9.98682 130.081 10.5622 129.067 11.7129C128.053 12.8636 127.546 14.6011 127.546 16.9253ZM148.478 26V7.85059H151.247V10.6021C151.953 9.31462 152.602 8.46582 153.195 8.05566C153.799 7.64551 154.459 7.44043 155.177 7.44043C156.214 7.44043 157.268 7.77083 158.339 8.43164L157.279 11.2856C156.527 10.8413 155.775 10.6191 155.023 10.6191C154.351 10.6191 153.747 10.8242 153.212 11.2344C152.676 11.6331 152.295 12.1914 152.067 12.9092C151.725 14.0029 151.554 15.1992 151.554 16.498V26H148.478ZM188.752 19.3521L191.777 19.7451C191.446 21.8301 190.598 23.465 189.23 24.6499C187.875 25.8234 186.206 26.4102 184.223 26.4102C181.739 26.4102 179.74 25.6012 178.225 23.9834C176.721 22.3542 175.969 20.0243 175.969 16.9937C175.969 15.034 176.293 13.3193 176.943 11.8496C177.592 10.3799 178.578 9.28044 179.899 8.55127C181.232 7.81071 182.679 7.44043 184.24 7.44043C186.211 7.44043 187.823 7.94173 189.077 8.94434C190.33 9.93555 191.133 11.3483 191.486 13.1826L188.496 13.644C188.211 12.425 187.704 11.5078 186.975 10.8926C186.257 10.2773 185.385 9.96973 184.36 9.96973C182.81 9.96973 181.551 10.528 180.583 11.6445C179.615 12.7497 179.13 14.5042 179.13 16.9082C179.13 19.3464 179.597 21.118 180.532 22.2231C181.466 23.3283 182.685 23.8809 184.189 23.8809C185.397 23.8809 186.405 23.5106 187.214 22.77C188.023 22.0295 188.535 20.8901 188.752 19.3521ZM196.764 16.9253C196.764 13.5643 197.698 11.0749 199.566 9.45703C201.127 8.11263 203.03 7.44043 205.274 7.44043C207.77 7.44043 209.809 8.26074 211.393 9.90137C212.976 11.5306 213.768 13.7865 213.768 16.6689C213.768 19.0046 213.415 20.8446 212.708 22.189C212.014 23.522 210.994 24.5588 209.649 25.2993C208.316 26.0399 206.858 26.4102 205.274 26.4102C202.734 26.4102 200.677 25.5955 199.105 23.9663C197.544 22.3371 196.764 19.9901 196.764 16.9253ZM199.925 16.9253C199.925 19.2495 200.432 20.9927 201.446 22.1548C202.46 23.3055 203.736 23.8809 205.274 23.8809C206.801 23.8809 208.071 23.2998 209.085 22.1377C210.099 20.9756 210.606 19.2039 210.606 16.8228C210.606 14.5783 210.094 12.8807 209.068 11.73C208.054 10.5679 206.79 9.98682 205.274 9.98682C203.736 9.98682 202.46 10.5622 201.446 11.7129C200.432 12.8636 199.925 14.6011 199.925 16.9253ZM232.786 26V23.334C231.373 25.3848 229.453 26.4102 227.026 26.4102C225.955 26.4102 224.953 26.2051 224.019 25.7949C223.096 25.3848 222.406 24.8721 221.951 24.2568C221.506 23.6302 221.193 22.8669 221.011 21.9668C220.885 21.363 220.823 20.4059 220.823 19.0957V7.85059H223.899V17.9165C223.899 19.5229 223.962 20.6053 224.087 21.1636C224.281 21.9725 224.691 22.6105 225.317 23.0776C225.944 23.5334 226.719 23.7612 227.642 23.7612C228.564 23.7612 229.43 23.5277 230.239 23.0605C231.048 22.582 231.618 21.9383 231.948 21.1294C232.29 20.3091 232.461 19.1242 232.461 17.5747V7.85059H235.537V26H232.786ZM243.874 26V7.85059H246.642V10.4312C247.975 8.43734 249.901 7.44043 252.418 7.44043C253.512 7.44043 254.515 7.63981 255.426 8.03857C256.349 8.42594 257.038 8.93864 257.494 9.57666C257.95 10.2147 258.269 10.9723 258.451 11.8496C258.565 12.4193 258.622 13.4162 258.622 14.8403V26H255.546V14.96C255.546 13.7067 255.426 12.7725 255.187 12.1572C254.948 11.5306 254.521 11.035 253.905 10.6704C253.301 10.2944 252.589 10.1064 251.769 10.1064C250.459 10.1064 249.325 10.5223 248.368 11.354C247.423 12.1857 246.95 13.7637 246.95 16.0879V26H243.874ZM273.572 23.2485L274.017 25.9658C273.151 26.1481 272.376 26.2393 271.692 26.2393C270.576 26.2393 269.71 26.0627 269.095 25.7095C268.479 25.3563 268.047 24.8949 267.796 24.3252C267.545 23.7441 267.42 22.5308 267.42 20.6851V10.2432H265.164V7.85059H267.42V3.35596L270.479 1.51025V7.85059H273.572V10.2432H270.479V20.856C270.479 21.7332 270.53 22.2972 270.633 22.5479C270.747 22.7985 270.923 22.9979 271.163 23.146C271.413 23.2941 271.766 23.3682 272.222 23.3682C272.564 23.3682 273.014 23.3283 273.572 23.2485ZM280.063 26V7.85059H282.832V10.6021C283.538 9.31462 284.187 8.46582 284.78 8.05566C285.384 7.64551 286.044 7.44043 286.762 7.44043C287.799 7.44043 288.853 7.77083 289.924 8.43164L288.864 11.2856C288.112 10.8413 287.36 10.6191 286.608 10.6191C285.936 10.6191 285.332 10.8242 284.797 11.2344C284.261 11.6331 283.88 12.1914 283.652 12.9092C283.31 14.0029 283.139 15.1992 283.139 16.498V26H280.063ZM295.116 32.9897L294.774 30.1016C295.446 30.2839 296.033 30.375 296.534 30.375C297.218 30.375 297.765 30.2611 298.175 30.0332C298.585 29.8053 298.921 29.4863 299.183 29.0762C299.377 28.7686 299.69 28.0052 300.123 26.7861C300.18 26.6152 300.271 26.3646 300.396 26.0342L293.509 7.85059H296.825L300.602 18.3608C301.091 19.6938 301.53 21.0952 301.917 22.5649C302.271 21.1522 302.692 19.7736 303.182 18.4292L307.062 7.85059H310.138L303.233 26.3076C302.493 28.3014 301.917 29.6743 301.507 30.4263C300.96 31.4403 300.334 32.1808 299.627 32.6479C298.921 33.1265 298.078 33.3657 297.098 33.3657C296.506 33.3657 295.845 33.2404 295.116 32.9897ZM328.263 20.5825L331.305 20.104C331.476 21.3231 331.949 22.2573 332.724 22.9067C333.51 23.5562 334.604 23.8809 336.005 23.8809C337.418 23.8809 338.466 23.596 339.149 23.0264C339.833 22.4453 340.175 21.7674 340.175 20.9927C340.175 20.2977 339.873 19.7508 339.269 19.3521C338.847 19.0786 337.799 18.7311 336.125 18.3096C333.869 17.7399 332.302 17.25 331.425 16.8398C330.559 16.4183 329.898 15.8429 329.442 15.1138C328.998 14.3732 328.776 13.5586 328.776 12.6699C328.776 11.861 328.958 11.1147 329.323 10.4312C329.699 9.73617 330.206 9.16081 330.844 8.70508C331.322 8.35189 331.972 8.05566 332.792 7.81641C333.624 7.56576 334.512 7.44043 335.458 7.44043C336.882 7.44043 338.13 7.64551 339.201 8.05566C340.283 8.46582 341.081 9.02409 341.593 9.73047C342.106 10.4255 342.459 11.3597 342.653 12.5332L339.645 12.9434C339.508 12.0091 339.11 11.2799 338.449 10.7559C337.799 10.2318 336.876 9.96973 335.68 9.96973C334.267 9.96973 333.259 10.2033 332.655 10.6704C332.051 11.1375 331.75 11.6844 331.75 12.311C331.75 12.7098 331.875 13.0687 332.125 13.3877C332.376 13.7181 332.769 13.9915 333.305 14.208C333.612 14.3219 334.518 14.584 336.022 14.9941C338.198 15.5752 339.713 16.0537 340.568 16.4297C341.434 16.7943 342.112 17.3298 342.602 18.0361C343.091 18.7425 343.336 19.6198 343.336 20.668C343.336 21.6934 343.035 22.6618 342.431 23.5732C341.838 24.4733 340.978 25.174 339.85 25.6753C338.722 26.1652 337.446 26.4102 336.022 26.4102C333.664 26.4102 331.863 25.9202 330.622 24.9404C329.391 23.9606 328.605 22.508 328.263 20.5825ZM350.511 4.48389V0.946289H353.587V4.48389H350.511ZM350.511 26V7.85059H353.587V26H350.511ZM373.562 26V23.71C372.411 25.5101 370.719 26.4102 368.486 26.4102C367.039 26.4102 365.706 26.0114 364.487 25.2139C363.279 24.4163 362.339 23.3055 361.667 21.8813C361.006 20.4458 360.676 18.7995 360.676 16.9424C360.676 15.1309 360.978 13.4902 361.582 12.0205C362.185 10.5394 363.091 9.40576 364.299 8.61963C365.507 7.8335 366.857 7.44043 368.349 7.44043C369.443 7.44043 370.417 7.67399 371.271 8.14111C372.126 8.59684 372.821 9.19499 373.356 9.93555V0.946289H376.416V26H373.562ZM363.837 16.9424C363.837 19.2666 364.327 21.0041 365.307 22.1548C366.287 23.3055 367.443 23.8809 368.776 23.8809C370.121 23.8809 371.26 23.334 372.194 22.2402C373.14 21.1351 373.613 19.4546 373.613 17.1987C373.613 14.715 373.134 12.8921 372.177 11.73C371.22 10.5679 370.041 9.98682 368.64 9.98682C367.272 9.98682 366.127 10.5451 365.205 11.6616C364.293 12.7782 363.837 14.5384 363.837 16.9424ZM397.193 20.1553L400.372 20.5483C399.871 22.4054 398.942 23.8467 397.586 24.8721C396.231 25.8975 394.499 26.4102 392.391 26.4102C389.736 26.4102 387.629 25.5955 386.068 23.9663C384.518 22.3257 383.744 20.0299 383.744 17.0791C383.744 14.0257 384.53 11.6559 386.102 9.96973C387.674 8.28353 389.714 7.44043 392.22 7.44043C394.647 7.44043 396.629 8.26644 398.167 9.91846C399.706 11.5705 400.475 13.8947 400.475 16.8911C400.475 17.0734 400.469 17.3468 400.458 17.7114H386.922C387.036 19.7052 387.6 21.2319 388.614 22.2915C389.628 23.3511 390.893 23.8809 392.408 23.8809C393.536 23.8809 394.499 23.5846 395.296 22.9922C396.094 22.3997 396.726 21.4541 397.193 20.1553ZM387.093 15.1821H397.228C397.091 13.6554 396.703 12.5104 396.065 11.7471C395.086 10.5622 393.815 9.96973 392.254 9.96973C390.842 9.96973 389.651 10.4425 388.683 11.3882C387.726 12.3338 387.196 13.5985 387.093 15.1821Z" fill="#95D0C5"/>
</svg>
