<svg width="395" height="87" viewBox="0 0 395 87" fill="none" xmlns="http://www.w3.org/2000/svg">
<rect width="395" height="87" rx="15" fill="url(#paint0_linear_334_225)" fill-opacity="0.5"/>
<path d="M40.8 39.85L40.2 38.95C40.25 38.9 40.3 38.9 40.3 38.85C40.35 38.85 40.35 38.85 40.35 38.85C40.45 38.8 40.55 38.75 40.6 38.65H40.65C40.7 38.6 40.8 38.55 40.9 38.5C41.1 38.35 41.3 38.2 41.45 38.05C41.5 38.05 41.55 38 41.6 37.95C41.7 37.9 41.75 37.85 41.8 37.8C41.9 37.7 42 37.6 42.1 37.55L42.15 37.5C42.2 37.45 42.3 37.4 42.35 37.3C42.6 37.15 42.8 36.95 43 36.7C45.25 34.5 46.85 31.7 47.55 28.5C47.8 27.35 47.95 26.15 47.95 24.9C47.95 24.5 47.95 24.1 47.9 23.7H20.35V57H25.15V41.5H31.3C31.45 41.5 31.55 41.5 31.65 41.5C31.7 41.5 31.8 41.5 31.85 41.5C31.95 41.5 32.05 41.5 32.1 41.5C32.15 41.5 32.15 41.5 32.2 41.5C32.3 41.5 32.45 41.5 32.6 41.45C32.75 41.45 32.85 41.45 33 41.45C33.1 41.4 33.25 41.4 33.35 41.4C33.4 41.4 33.45 41.4 33.5 41.35C33.6 41.35 33.7 41.35 33.8 41.35C33.85 41.3 33.9 41.3 33.95 41.3C34 41.3 34.1 41.3 34.2 41.25C34.45 41.2 34.75 41.15 35.05 41.1C35.15 41.05 35.3 41.05 35.4 41C35.45 41 35.45 41 35.5 41C35.6 40.95 35.65 40.95 35.75 40.9C35.8 40.9 35.8 40.9 35.8 40.9L36.1 41.35L45.65 57H51.25L40.8 39.85ZM36 35.75C34.55 36.4 32.95 36.7 31.3 36.7H25.15V28.5H42.6C42 30.3 41 31.95 39.65 33.3C38.55 34.35 37.35 35.2 36 35.75ZM58.659 41.6H80.009V36.8H58.659V31H53.859V57H83.259V52.25H58.659V41.6ZM53.859 23.8V28.6H83.259V23.8H53.859ZM116.69 36.9H100.19L102.44 41.7H111.89V52.25H100.64C94.6402 51.45 90.0402 46.45 90.0402 40.45C90.0402 34.45 94.6402 29.45 100.64 28.65H116.59V23.9H102.34C97.6902 23.9 93.4402 25.7 90.3902 28.65C87.2902 31.65 85.3402 35.85 85.3402 40.45C85.3402 45.05 87.2902 49.25 90.3902 52.25C93.4402 55.2 97.6902 57 102.34 57H116.69V36.9ZM122.547 57V23.75H127.347V57H122.547ZM127.197 23.9H122.697V56.85H127.197V23.9ZM122.547 23.75V57H127.347V23.75H122.547ZM151.968 38H142.468C142.218 38 141.918 38 141.668 38C141.468 38 141.318 38 141.168 38C138.768 37.75 136.918 35.75 136.918 33.3C136.918 30.7 139.018 28.6 141.618 28.6H152.168C154.618 28.7 156.568 30.6 156.718 33.05H161.518C161.468 31.45 161.018 29.9 160.268 28.6C160.268 28.6 160.268 28.6 160.218 28.6C158.618 25.8 155.668 23.9 152.218 23.8C152.118 23.8 152.068 23.8 151.968 23.8C151.918 23.8 151.818 23.8 151.718 23.8H141.618C138.118 23.8 135.018 25.75 133.368 28.6C132.568 30 132.118 31.6 132.118 33.3C132.118 35 132.568 36.65 133.368 38C133.768 38.7 134.268 39.35 134.818 39.9C136.518 41.7 138.968 42.8 141.618 42.8H151.968C154.568 42.8 156.718 44.9 156.718 47.5C156.718 50.1 154.568 52.25 151.968 52.25H141.668C139.118 52.25 137.068 50.25 136.918 47.75H132.118C132.168 49.4 132.618 50.9 133.368 52.25C135.018 55.1 138.118 57 141.668 57H151.968C155.518 57 158.618 55.1 160.268 52.25C161.018 50.85 161.518 49.25 161.518 47.5C161.518 45.8 161.018 44.2 160.268 42.8C158.618 39.95 155.518 38 151.968 38ZM183.198 57V31H178.398V57H183.198ZM195.898 28.6V23.8H166.248V28.6H195.898ZM220.585 39.85L219.985 38.95C220.035 38.9 220.085 38.9 220.085 38.85C220.135 38.85 220.135 38.85 220.135 38.85C220.235 38.8 220.335 38.75 220.385 38.65H220.435C220.485 38.6 220.585 38.55 220.685 38.5C220.885 38.35 221.085 38.2 221.235 38.05C221.285 38.05 221.335 38 221.385 37.95C221.485 37.9 221.535 37.85 221.585 37.8C221.685 37.7 221.785 37.6 221.885 37.55L221.935 37.5C221.985 37.45 222.085 37.4 222.135 37.3C222.385 37.15 222.585 36.95 222.785 36.7C225.035 34.5 226.635 31.7 227.335 28.5C227.585 27.35 227.735 26.15 227.735 24.9C227.735 24.5 227.735 24.1 227.685 23.7H200.135V57H204.935V41.5H211.085C211.235 41.5 211.335 41.5 211.435 41.5C211.485 41.5 211.585 41.5 211.635 41.5C211.735 41.5 211.835 41.5 211.885 41.5C211.935 41.5 211.935 41.5 211.985 41.5C212.085 41.5 212.235 41.5 212.385 41.45C212.535 41.45 212.635 41.45 212.785 41.45C212.885 41.4 213.035 41.4 213.135 41.4C213.185 41.4 213.235 41.4 213.285 41.35C213.385 41.35 213.485 41.35 213.585 41.35C213.635 41.3 213.685 41.3 213.735 41.3C213.785 41.3 213.885 41.3 213.985 41.25C214.235 41.2 214.535 41.15 214.835 41.1C214.935 41.05 215.085 41.05 215.185 41C215.235 41 215.235 41 215.285 41C215.385 40.95 215.435 40.95 215.535 40.9C215.585 40.9 215.585 40.9 215.585 40.9L215.885 41.35L225.435 57H231.035L220.585 39.85ZM215.785 35.75C214.335 36.4 212.735 36.7 211.085 36.7H204.935V28.5H222.385C221.785 30.3 220.785 31.95 219.435 33.3C218.335 34.35 217.135 35.2 215.785 35.75ZM233.071 57H239.421L249.971 38L246.821 32.25L233.071 57ZM254.721 29.4L251.521 23.7L248.371 29.4L251.521 35.1L263.671 57H269.971L254.721 29.4ZM280.171 57V31H275.371V57H280.171ZM292.871 28.6V23.8H263.221V28.6H292.871ZM297.645 57V23.75H302.445V57H297.645ZM302.295 23.9H297.795V56.85H302.295V23.9ZM297.645 23.75V57H302.445V23.75H297.645ZM323.865 28.55C330.365 28.55 335.665 33.9 335.665 40.4C335.665 46.95 330.365 52.25 323.865 52.25C317.315 52.25 312.015 46.95 312.015 40.4C312.015 33.9 317.315 28.55 323.865 28.55ZM307.215 40.4C307.215 49.6 314.665 57 323.865 57C333.015 57 340.465 49.6 340.465 40.4C340.465 31.2 333.015 23.8 323.865 23.8C314.665 23.8 307.215 31.2 307.215 40.4ZM345.204 57H350.004V38.7L345.204 33.9V57ZM366.804 23.8V45.3L345.204 23.75V30.5L350.004 35.3L366.804 52.1L371.554 56.85V23.8H366.804Z" fill="#D2D2D2"/>
<defs>
<linearGradient id="paint0_linear_334_225" x1="387" y1="87" x2="54" y2="12" gradientUnits="userSpaceOnUse">
<stop stop-color="#5DC7B6"/>
<stop offset="1" stop-color="#4F2359"/>
</linearGradient>
</defs>
</svg>
