<svg width="155" height="147" viewBox="0 0 155 147" fill="none" xmlns="http://www.w3.org/2000/svg">
<path fill-rule="evenodd" clip-rule="evenodd" d="M34.0462 55.5369H69.6417C70.0363 55.5369 70.4224 55.5732 70.7968 55.6427C73.3608 55.3813 75.9521 55.6052 78.4455 56.3072C81.2911 57.1083 83.948 58.5146 86.2501 60.4383C88.5522 62.3619 90.45 64.7615 91.8248 67.487C93.1995 70.2125 94.0218 73.2053 94.24 76.2782C94.4582 79.3511 94.0677 82.438 93.093 85.3459C92.1182 88.2538 90.5802 90.9202 88.575 93.1783C86.5699 95.4363 84.1407 97.2375 81.4395 98.4693C80.8298 98.7472 80.2093 98.9949 79.5799 99.2117L104.114 139.989L91.4593 147L63.3842 100.337H33.6911C34.3841 105.428 35.9025 110.401 38.2041 115.077C41.4261 121.622 46.1069 127.432 51.9257 132.107L65.1285 141.341C38.1588 145.044 29.1497 129.208 25.045 120.87C20.9403 112.531 18.791 103.451 18.7445 94.2524H18.7451L18.745 94.2275C18.745 90.8536 21.4801 88.1184 24.8541 88.1184H72.876V88.035C74.2046 88.035 75.5188 87.7484 76.7366 87.1932C77.9543 86.6379 79.0494 85.8259 79.9534 84.8079C80.8573 83.7899 81.5507 82.5879 81.9901 81.277C82.4296 79.966 82.6056 78.5744 82.5072 77.1891C82.4089 75.8038 82.0382 74.4546 81.4184 73.2259C80.7987 71.9972 79.9431 70.9154 78.9053 70.0482C77.8675 69.181 76.6697 68.547 75.3868 68.1858C74.104 67.8247 72.7637 67.7442 71.4497 67.9493L71.4377 67.8654C70.8686 68.0345 70.2658 68.1253 69.6417 68.1253H6.29417C2.81799 68.1253 0 65.3073 0 61.8311C0 58.3549 2.818 55.5369 6.29418 55.5369H19.4196C20.9052 46.2867 24.4398 37.4249 29.8125 29.5619C36.3483 19.9967 45.3762 12.243 55.9982 7.07216C66.6201 1.90133 78.4658 -0.506348 90.3566 0.0886652C102.247 0.683679 113.769 4.26064 123.775 10.4637C133.78 16.6667 141.922 25.2796 147.388 35.4453C152.855 45.6111 155.457 56.9754 154.935 68.4076C154.412 79.8397 150.785 90.9412 144.412 100.607C138.039 110.274 129.144 118.168 118.611 123.504C123.279 121.139 124.332 114.201 125.237 108.234C125.942 103.582 126.558 99.519 128.728 98.6706C133.754 91.0469 140.128 76.8167 140.539 67.8003C140.951 58.7838 138.899 49.8209 134.588 41.8033C130.276 33.7857 123.855 26.9928 115.964 22.1005C108.072 17.2082 98.9855 14.3871 89.6073 13.9178C80.2292 13.4486 70.8867 15.3475 62.5092 19.4257C54.1318 23.5038 47.0116 29.6191 41.8569 37.1631C38.0302 42.7634 35.3858 49.0062 34.0462 55.5369Z" fill="url(#paint0_linear_334_234)"/>
<defs>
<linearGradient id="paint0_linear_334_234" x1="62.5" y1="6.5" x2="77.5" y2="147" gradientUnits="userSpaceOnUse">
<stop stop-color="#0F5A77"/>
<stop offset="1" stop-color="#372963"/>
</linearGradient>
</defs>
</svg>
